<?xml version="1.0" encoding="utf-8"?>
<!-- Generator: Adobe Illustrator 24.0.2, SVG Export Plug-In . SVG Version: 6.00 Build 0)  -->
<svg version="1.1" id="Layer_1" xmlns="http://www.w3.org/2000/svg" xmlns:xlink="http://www.w3.org/1999/xlink" x="0px" y="0px"
	 viewBox="0 0 235.3 50.6" style="enable-background:new 0 0 235.3 50.6;" xml:space="preserve">
<style type="text/css">
	.st0{fill:#F7931E;stroke:#F7931E;stroke-width:2;stroke-miterlimit:10;}
	.st1{fill:#00163E;stroke:#00163E;stroke-miterlimit:10;}
	.st2{fill:#00163E;}
</style>
<title>Asset 1</title>
<circle class="st0" cx="26.7" cy="26" r="14.7"/>
<path class="st1" d="M34.1,28.2H34l0,0v-6.3c0-0.7-0.5-1.3-1.2-1.3c0,0,0,0,0,0h-0.5l0,0v-1.9c0-0.7-0.5-1.3-1.2-1.3c0,0,0,0,0,0
	h-0.4l0,0v-2.3c0-0.7-0.5-1.3-1.2-1.3c0,0-0.1,0-0.1,0h-2.1V1.5c0-0.3-0.3-0.6-0.6-0.6c0,0,0,0,0,0c-0.3,0-0.6,0.3-0.6,0.6
	c0,0,0,0,0,0v12.4h-1.9c-0.7,0-1.3,0.6-1.3,1.3v2.2l0,0h-0.4c-0.7,0-1.3,0.6-1.3,1.2c0,0,0,0,0,0v1.9l0,0h-0.5
	c-0.7,0-1.3,0.5-1.3,1.2c0,0,0,0.1,0,0.1v6.2c0,0,0,0,0,0h-0.1c-0.1,0-0.2,0-0.3,0.1c-0.5,0.2-0.9,0.6-0.9,1.2v21.1h1.2V29.5l0,0
	h5.1c0.1,0,0.2,0.1,0.3,0.1v21H26V29.4c0-0.5-0.3-0.9-0.8-1v-6.7c0-0.6-0.4-1-1-1h-1.7v-2l0,0h0.4c0.1,0,0.2,0,0.3-0.1
	c0.1,0,0.1,0,0.2,0h7c0.1,0,0.2,0,0.2,0h0.4l0,0v1.9l0,0h-1.6c-0.6,0-1,0.4-1,1v6.8l-0.1,0c-0.5,0.1-0.8,0.5-0.8,1v21.1h1.2v-21
	c0.1,0,0.2-0.1,0.3-0.1h5l0,0v21.1h1.2V29.5C35.3,28.8,34.8,28.3,34.1,28.2z M24,21.9v6.3h-3.3v-6.3l0,0H24z M29.3,17.5h-5.2v-2.3
	l0,0h5.2h0L29.3,17.5z M32.7,28.2h-3.2v-6.3h3.1l0,0L32.7,28.2z"/>
<path class="st1" d="M32,32.1v18.4h-1.2V32.1c0-0.3,0.2-0.6,0.5-0.7c0.3,0,0.6,0.2,0.7,0.5C32,32,32,32.1,32,32.1z"/>
<path class="st1" d="M22.6,32.1v18.4h-1.2V32.1c0-0.3,0.3-0.6,0.6-0.6C22.3,31.5,22.6,31.8,22.6,32.1z"/>
<path class="st0" d="M18.5,9c-0.2,0-0.4-0.1-0.5-0.3l-2.4-5.2c-0.1-0.3,0-0.6,0.2-0.7c0,0,0,0,0,0c0.2-0.1,0.5,0,0.7,0.2
	c0,0,0,0,0,0L19,8.3c0.1,0.2,0,0.5-0.2,0.7c0,0,0,0,0,0C18.7,9,18.6,9,18.5,9z"/>
<path class="st0" d="M11.9,14.1c-0.1,0-0.2,0-0.3-0.1l-4.4-3.7c-0.2-0.2-0.2-0.5-0.1-0.7c0.2-0.2,0.5-0.2,0.7-0.1l4.4,3.7
	c0.2,0.2,0.2,0.5,0.1,0.7C12.2,14.1,12.1,14.1,11.9,14.1z"/>
<path class="st0" d="M8,21.5H7.9L2.3,20c-0.3-0.1-0.4-0.4-0.4-0.6C2,19.1,2.3,19,2.6,19l5.6,1.5c0.3,0.1,0.4,0.4,0.3,0.6
	C8.5,21.4,8.3,21.5,8,21.5z"/>
<path class="st0" d="M2,30.9c-0.3,0-0.5-0.3-0.5-0.6c0-0.2,0.2-0.4,0.4-0.4l5.7-1c0.3-0.1,0.6,0.1,0.6,0.4c0.1,0.3-0.1,0.6-0.4,0.6
	c0,0-0.1,0-0.1,0L2,30.9L2,30.9z"/>
<path class="st0" d="M6.2,40.9c-0.2,0-0.3-0.1-0.4-0.2c-0.2-0.2-0.1-0.5,0.1-0.7c0,0,0,0,0,0l4.7-3.3c0.2-0.2,0.5-0.1,0.7,0.1
	c0,0,0,0,0,0c0.2,0.2,0.1,0.5-0.1,0.7c0,0,0,0,0,0l-4.7,3.3C6.4,40.9,6.3,40.9,6.2,40.9z"/>
<path class="st0" d="M44.5,44.3c-0.1,0-0.3-0.1-0.4-0.2L40,40.1c-0.2-0.2-0.2-0.5,0-0.7c0.2-0.2,0.5-0.2,0.7,0c0,0,0,0,0,0l4.1,4.1
	c0.2,0.2,0.2,0.5,0,0.7C44.7,44.2,44.6,44.3,44.5,44.3z"/>
<path class="st0" d="M50.3,35.1c-0.1,0-0.1,0-0.2,0l-5.4-2c-0.3-0.1-0.4-0.4-0.3-0.7c0.1-0.3,0.4-0.4,0.6-0.3c0,0,0,0,0,0l5.4,2
	c0.3,0.1,0.4,0.4,0.3,0.7C50.7,35,50.5,35.1,50.3,35.1z"/>
<path class="st0" d="M46,24.9c-0.3-0.1-0.5-0.3-0.4-0.6c0-0.2,0.2-0.4,0.4-0.4l5.8-0.5c0.3-0.1,0.6,0.1,0.6,0.4
	c0.1,0.3-0.1,0.6-0.4,0.6c-0.1,0-0.1,0-0.2,0L46,24.9L46,24.9z"/>
<path class="st0" d="M43.5,16.9c-0.3,0-0.5-0.2-0.5-0.5c0-0.2,0.1-0.4,0.3-0.4l5-2.9c0.2-0.2,0.5-0.1,0.7,0.1
	c0.2,0.2,0.1,0.5-0.1,0.7c0,0,0,0-0.1,0l-5,2.9C43.7,16.9,43.6,16.9,43.5,16.9z"/>
<path class="st0" d="M37.8,10.7c-0.1,0-0.2,0-0.3-0.1c-0.2-0.2-0.3-0.5-0.1-0.7l3.3-4.7c0.1-0.2,0.4-0.3,0.7-0.2
	c0.2,0.1,0.3,0.4,0.2,0.7c0,0,0,0.1-0.1,0.1l-3.3,4.7C38.1,10.6,38,10.7,37.8,10.7z"/>
<path class="st2" d="M85.8,50.3h-7.1l-7.5-11.4v11.4h-7.1V27.7h7.1l7.5,11.6V27.7h7.1V50.3z"/>
<path class="st2" d="M112.4,27.7l-8.1,15.8v6.9h-7.1v-6.9L89,27.7h8.1l3.6,8l3.6-8H112.4z"/>
<path class="st2" d="M139.1,47.1c-0.7,1.1-1.7,1.9-2.9,2.5c-1.4,0.6-3,1-4.6,0.9c-2.4,0.1-4.7-0.6-6.7-1.9c-1.8-1.3-2.9-3.4-2.9-5.6
	h7.5c0.1,1.3,0.7,2,1.7,2c0.3,0,0.6-0.1,0.9-0.3c0.2-0.2,0.4-0.5,0.3-0.8c0-0.5-0.3-1-0.8-1.3c-0.8-0.4-1.7-0.8-2.6-1.1
	c-1.2-0.4-2.4-0.9-3.6-1.4c-1-0.5-1.8-1.3-2.5-2.2c-0.7-1.1-1.1-2.4-1-3.7c0-1.3,0.4-2.7,1.1-3.8c0.8-1.1,1.9-1.9,3.1-2.4
	c1.4-0.6,2.9-0.8,4.4-0.8c2.3-0.1,4.6,0.5,6.5,1.9c1.6,1.3,2.6,3.3,2.6,5.4h-7.6c-0.1-1.2-0.6-1.8-1.5-1.8c-0.3,0-0.5,0.1-0.7,0.3
	c-0.2,0.2-0.3,0.5-0.3,0.8c0,0.5,0.3,1,0.8,1.2c0.8,0.4,1.7,0.8,2.6,1.1c1.2,0.4,2.4,0.9,3.6,1.5c1,0.6,1.8,1.3,2.4,2.2
	c0.8,1.1,1.1,2.4,1.1,3.7C140.2,44.9,139.8,46.1,139.1,47.1z"/>
<path class="st2" d="M161.1,28.8c1.8,1,3.2,2.4,4.2,4.2c2.1,3.7,2.1,8.3,0,12c-1,1.7-2.5,3.2-4.2,4.2c-3.7,2-8.1,2-11.7,0
	c-1.8-1-3.2-2.4-4.2-4.2c-2.1-3.7-2.1-8.3,0-12c1-1.7,2.5-3.2,4.2-4.1C153.1,26.8,157.5,26.8,161.1,28.8L161.1,28.8z M152,35.2
	c-0.8,1.1-1.2,2.4-1.1,3.7c-0.1,1.3,0.3,2.6,1.1,3.7c0.8,0.9,2.1,1.4,3.3,1.4c1.2,0.1,2.4-0.4,3.3-1.4c0.8-1,1.2-2.3,1.1-3.6
	c0.1-1.3-0.3-2.6-1.1-3.7c-0.8-0.9-2-1.4-3.3-1.4C154.1,33.8,152.8,34.3,152,35.2L152,35.2z"/>
<path class="st2" d="M178.2,44.9h6.9v5.4h-14V27.7h7.1V44.9z"/>
<path class="st2" d="M203.4,46.9h-7.6l-1.1,3.4h-7.5l8.3-22.7h8.2l8.3,22.7h-7.5L203.4,46.9z M201.7,41.6l-2.1-6.3l-2,6.3H201.7z"/>
<path class="st2" d="M226.6,50.3l-4.3-8.1v8.1h-7.1V27.7h10.6c1.6,0,3.2,0.3,4.7,1c1.2,0.6,2.2,1.5,2.9,2.7c0.7,1.2,1,2.5,1,3.8
	c0,1.4-0.4,2.8-1.3,4c-0.9,1.2-2.2,2.1-3.7,2.5l4.9,8.7H226.6z M222.3,37.4h2.8c0.6,0,1.1-0.1,1.5-0.5c0.7-0.8,0.7-2,0-2.9
	c-0.4-0.4-1-0.5-1.5-0.5h-2.8L222.3,37.4z"/>
</svg>
